PathFileType	4	(X/Y/Z)	D:\TRACE\v60_Jaco2_6-2-23\BothDRS_Motion2_10-v60.trc
DataRate	CameraRate	NumFrames	NumMarkers	Units	OrigDataRate	OrigDataStartFrame	OrigNumFrames
100.00	100.00	      34	9	mm	100.00	1876	      7500
Frame#	Time	front left toe			Front right toe			aft left toe			aft right toe			Arm			FL body			FR body			AL Body			AR Body			
		X1	Y1	Z1	X2	Y2	Z2	X3	Y3	Z3	X4	Y4	Z4	X5	Y5	Z5	X6	Y6	Z6	X7	Y7	Z7	X8	Y8	Z8	X9	Y9	Z9	

1876	18.750	-228.74687	15.44619	-296.37167	130.73711	55.54896	-308.07425	-214.18291	61.27812	329.15277	165.08377	19.25806	320.42499	-25.96889	1148.26660	-685.98584	-114.89579	558.42206	-435.86209	45.39594	558.39844	-438.91629	-95.80542	594.11835	509.57059	61.43737	588.05151	507.12277	
1877	18.760	-227.47032	15.83847	-295.89468	133.46300	67.93211	-308.78799	-216.13861	73.45350	326.48752	166.30751	18.41907	320.74615	-25.24394	1150.36975	-683.69238	-114.41502	559.30682	-435.19299	46.05745	559.21332	-438.18353	-94.09642	592.34332	510.24081	62.50692	586.74646	507.95200	
1878	18.770	-226.70389	16.42566	-295.39383	136.51700	80.57632	-309.72205	-218.27441	85.48528	324.96133	167.09792	17.70480	320.90372	-24.46049	1152.61926	-681.33368	-113.30260	559.93988	-434.45728	47.26423	559.90662	-438.06177	-92.93301	590.72205	511.02802	63.69237	585.30328	508.59576	
1879	18.780	-226.07840	17.27469	-295.31531	138.85706	92.12260	-309.97589	-219.12976	97.47274	324.28961	168.26625	16.69782	321.03317	-23.79088	1154.72229	-678.73914	-112.11201	560.37848	-433.43826	47.58585	560.80298	-437.55252	-92.44954	589.76031	511.93982	64.91607	583.53308	509.37930	
1880	18.790	-224.92952	17.69417	-294.92346	140.74239	103.52624	-309.84937	-218.81126	108.40273	324.37140	169.41458	16.14317	321.47391	-22.94493	1156.64746	-676.10834	-112.57043	561.83020	-433.23914	47.83270	561.41608	-436.65738	-91.05827	588.29779	512.74982	65.65826	582.11041	509.80164	
1881	18.800	-224.11855	18.32619	-294.59811	142.28539	113.79994	-309.53247	-218.03246	118.82331	324.45847	170.24841	15.24363	321.77188	-21.91582	1158.36133	-673.87329	-111.11332	562.56006	-432.03247	48.99199	562.59467	-436.01849	-89.60467	586.16705	512.98450	67.13718	580.49438	510.47818	
1882	18.810	-223.32642	18.98528	-294.28601	141.67056	123.46921	-309.59952	-216.79408	127.72854	324.42157	171.65858	14.85645	322.11581	-21.08103	1159.67883	-671.86597	-110.31843	563.57501	-431.12555	49.36921	563.68091	-435.55356	-88.11124	584.39209	514.28912	68.31986	578.91632	511.38058	
1883	18.820	-222.42746	19.93067	-293.79059	142.19292	132.24867	-309.36441	-215.78285	135.21771	324.47589	172.60582	13.79900	322.53134	-20.70846	1160.82068	-669.75891	-110.54313	565.00531	-430.69922	49.93121	564.89252	-434.88385	-87.30997	583.40137	515.05377	69.62244	577.60962	512.34009	
1884	18.830	-221.18741	20.54572	-293.38638	143.28253	139.70883	-309.34488	-214.91559	141.70145	324.53580	173.46623	13.29064	322.71005	-20.27079	1162.07996	-667.81097	-110.19309	566.30035	-429.90381	50.17110	565.51758	-433.66486	-85.54018	582.05145	515.96002	70.90820	576.39709	512.90991	
1885	18.840	-220.32927	21.27206	-292.89688	144.40701	144.77489	-308.99319	-214.90868	146.07747	324.99292	174.66753	12.53762	323.08887	-19.81747	1163.46631	-665.61261	-109.67778	567.24048	-429.05331	50.50060	566.74744	-433.06226	-84.40679	581.36591	516.79333	72.13812	575.31799	513.69983	
1886	18.850	-219.44281	22.09223	-292.67984	146.24529	146.13866	-307.82480	-214.53604	147.49718	326.54745	175.50063	11.81184	323.46347	-19.17389	1165.20630	-663.47125	-108.90451	568.18390	-427.90103	51.34000	567.43335	-432.27847	-82.65272	580.26099	517.91150	73.67355	574.40601	514.60760	
1887	18.860	-218.67027	22.96337	-292.14816	147.71254	145.54547	-306.42218	-214.86305	146.58411	328.19666	176.81866	11.15503	323.72375	-18.63496	1166.88086	-661.27338	-108.90214	569.12604	-426.93353	51.56354	568.54749	-431.23352	-81.65691	580.00244	518.59021	75.12365	573.73724	515.25110	
1888	18.870	-217.45779	23.60106	-291.76270	148.92027	142.09058	-304.67844	-213.92278	143.20378	330.33096	177.55145	10.58931	323.90982	-18.27845	1168.36926	-659.05267	-107.30785	569.82562	-425.44217	51.86827	569.32947	-430.50684	-79.84702	578.93140	519.89563	76.38271	573.09149	516.21857	
1889	18.880	-216.74097	24.42439	-291.43555	149.27039	137.82529	-302.60233	-212.98920	139.34624	332.58945	178.58871	9.63503	324.28375	-17.83072	1169.75037	-657.45441	-107.00417	570.67554	-424.54398	52.96846	570.13086	-429.75961	-79.08365	578.69427	520.82574	77.74843	572.27686	516.95032	
1890	18.890	-215.94701	25.03941	-290.93423	149.28668	132.32791	-300.81793	-211.56323	134.67313	334.90860	179.58354	9.02706	324.42401	-17.01667	1170.91138	-655.58917	-106.94337	571.91919	-423.72086	53.86828	571.01978	-428.95178	-77.16084	577.64294	521.94946	79.28271	571.43939	517.90442	
1891	18.900	-215.09639	25.88114	-290.49997	148.58342	125.81398	-299.38934	-210.47174	129.14108	337.45200	180.29005	8.22147	324.87262	-16.31164	1171.81726	-653.61475	-106.89091	572.82434	-422.88739	53.74518	571.72699	-428.07846	-76.90736	577.59412	523.19666	80.44983	570.34686	518.92725	
1892	18.910	-214.04785	26.52988	-289.95984	148.63123	118.54171	-297.67065	-210.24799	121.80277	339.72491	180.97458	7.56836	324.94049	-15.04519	1172.66150	-651.72119	-106.31312	573.73267	-421.60910	54.07551	572.40326	-427.07669	-74.66531	576.33142	523.98285	81.91012	569.50043	519.58990	
1893	18.920	-213.22427	26.86955	-289.68552	148.56903	110.23726	-296.21689	-209.87198	112.98360	342.12192	182.17822	7.00551	325.36481	-13.90624	1173.57434	-649.60016	-105.70466	574.43970	-420.29459	53.61201	572.96899	-426.04407	-73.49674	575.61755	524.86511	83.07700	568.47546	520.49719	
1894	18.930	-212.77095	27.87889	-289.22455	148.56776	100.88081	-294.80127	-209.84924	103.42898	344.45792	182.78815	6.05038	325.67465	-12.86216	1174.51599	-647.61530	-105.91724	575.37469	-419.43805	54.29867	573.36145	-424.91180	-71.74004	575.01300	526.23706	84.51801	567.45465	521.39801	
1895	18.940	-211.92848	28.57944	-288.73563	148.58937	90.69802	-293.48566	-208.76134	94.19689	346.74490	183.52968	5.50883	325.91754	-12.09307	1175.70898	-645.80426	-104.81769	575.63141	-417.89685	54.85091	573.83978	-424.27917	-70.72283	574.12439	527.18201	85.69585	566.46576	522.43530	
1896	18.950	-211.42052	29.16853	-288.43097	148.21408	80.50956	-291.55405	-207.79926	85.10168	348.64844	184.71347	4.80799	326.33936	-11.13699	1176.70667	-643.86285	-105.75248	576.84308	-417.25711	55.06838	574.32404	-423.67819	-69.45711	573.36786	528.28394	87.13638	565.39410	523.46234	
1897	18.960	-210.42061	29.46563	-287.84402	147.82343	70.36029	-289.80945	-206.52090	76.14618	350.73816	185.24513	4.05015	326.61191	-9.68782	1177.67871	-641.85358	-104.82008	577.21936	-415.98334	55.46372	574.69165	-422.38174	-68.16229	572.41937	529.57806	88.09840	564.33984	524.05457	
1898	18.970	-210.00993	30.51873	-287.49005	147.49191	61.10958	-288.69800	-205.64496	66.69609	352.70923	185.82005	3.40200	326.79633	-8.09851	1178.35474	-639.94910	-105.04622	577.99005	-415.02512	55.10080	575.03888	-421.43600	-66.80711	571.86023	530.30707	89.58279	563.35364	525.22534	
1899	18.980	-209.32964	30.86248	-287.03287	147.46088	52.07029	-287.43088	-204.70137	57.50136	354.29471	186.50024	2.81239	327.04901	-6.86747	1179.32581	-638.21649	-104.53934	578.48792	-413.76651	55.86607	575.45789	-420.57782	-65.52032	570.69159	531.38171	90.40783	562.35468	525.74567	
1900	18.990	-208.46878	31.74070	-286.80139	148.08127	43.23207	-286.46280	-204.08159	49.14523	354.93170	187.51778	2.13618	327.45764	-5.73360	1180.00403	-636.43439	-103.70638	579.23914	-412.47556	56.16375	575.75482	-419.65207	-64.28401	570.28522	532.33496	91.69547	561.35944	526.73993	
1901	19.000	-208.06400	32.23374	-286.22833	149.14310	35.24817	-285.62805	-203.72380	41.31608	356.11404	187.93558	1.39332	327.64185	-4.50605	1180.63171	-634.70044	-103.93408	579.91803	-411.73080	56.34232	576.01410	-418.83173	-63.37820	569.19061	533.58221	92.54705	560.23853	527.51196	
1902	19.010	-207.50673	33.14090	-285.77060	150.03223	34.47316	-288.01453	-201.02664	33.43598	356.96335	188.34367	0.56798	327.72189	-3.59261	1181.41699	-632.92096	-103.35104	580.18896	-410.37756	56.57444	576.40564	-417.73923	-62.61668	568.58093	534.34955	93.85793	559.23016	528.64423	
1903	19.020	-206.68413	33.38453	-285.31485	150.84256	32.23151	-287.31836	-199.62584	28.80890	357.52255	189.21921	0.16319	328.15845	-2.40399	1181.90820	-631.16315	-103.51938	581.23010	-409.78867	56.23216	577.43469	-416.88968	-61.49891	567.32001	535.62244	94.77571	558.33978	529.21344	
1904	19.030	-206.34581	34.25910	-285.05814	152.14285	33.11147	-286.79016	-198.42856	23.24727	357.72409	189.72218	-0.50912	328.46063	-1.38847	1183.02209	-629.29834	-103.27464	582.55133	-408.68103	56.56843	578.74463	-415.76758	-60.79839	566.62860	536.34253	95.41062	557.29126	530.32037	
1905	19.040	-205.61501	35.25420	-284.63635	151.90851	34.68313	-286.55072	-196.46835	17.32951	357.82498	190.51578	-0.95899	328.68979	-1.05853	1184.67896	-626.93634	-103.13406	584.38629	-407.73575	57.66935	580.26294	-415.13065	-60.12221	565.83069	537.41992	96.53216	556.56152	531.21973	
1906	19.050	-204.95427	35.83088	-284.25174	152.07159	35.24170	-285.83920	-197.50920	6.00290	357.52109	190.88660	-1.37153	329.00446	-1.56761	1186.56836	-624.49640	-102.49695	585.49854	-406.52075	57.81634	581.67340	-414.24280	-58.98376	565.46973	538.28717	97.34330	556.16943	532.11682	
1907	19.060	-204.51541	36.53464	-283.81259	152.45514	36.18307	-285.81192	-195.52931	-6.68575	357.23703	191.21281	-1.89799	329.05911	-2.46484	1189.24622	-621.90759	-101.95890	586.68134	-405.30753	57.60892	583.21423	-412.91232	-58.37373	564.75580	539.32501	98.16802	555.38806	532.91235	
1908	19.070	-204.22543	37.11586	-283.61835	152.75333	36.39729	-285.40945	-198.05397	-7.81635	356.17401	191.34708	-2.33387	329.42984	-3.29201	1192.13220	-619.01172	-101.72587	588.02148	-404.29047	57.68666	583.97516	-412.71387	-57.04950	565.81592	539.88660	99.08590	555.87787	533.46600	
1909	19.080	-204.07393	38.20281	-283.18881	152.30089	36.47019	-284.71786	-197.24939	-4.90157	359.10596	191.31587	-1.74209	329.31296	-4.60557	1194.99341	-616.96588	-102.64977	589.46478	-403.91034	57.03766	584.80084	-411.85138	-55.96754	567.67358	540.47998	100.20143	557.23340	533.93622	
